# AST/ASF file generated using VICON BodyLanguage
# -----------------------------------------------
:version 1.10
:name VICON
:units
  mass 1.0
  length 0.45
  angle deg
:documentation
   .ast/.asf automatically generated from VICON data using
   VICON BodyBuilder and BodyLanguage model FoxedUp or BRILLIANT.MOD
:root
   order TX TY TZ RX RY RZ
   axis XYZ
   position 0 0 0  
   orientation 0 0 0 
:bonedata
  begin
     id 1 
     name lhipjoint
     direction 0.625129 -0.738222 0.253461 
     length 2.5165 
     axis 0 0 0  XYZ
  end
  begin
     id 2 
     name lfemur
     direction 0.34202 -0.939693 0  
     length 7.54288  
     axis 0 0 20  XYZ
    dof rx ry rz
    limits (-160.0 20.0)
           (-70.0 70.0)
           (-60.0 70.0)
  end
  begin
     id 3 
     name ltibia
     direction 0.34202 -0.939693 0   
     length 7.71864   
     axis 0 0 20   XYZ
    dof rx
    limits (-10.0 170.0)
  end
  begin
     id 4 
     name lfoot
     direction 0.0772037 -0.212115 0.97419   
     length 2.18429   
     axis -90 7.62852e-016 20   XYZ
    dof rx rz
    limits (-45.0 90.0)
           (-70.0 20.0)
  end
  begin
     id 5 
     name ltoes
     direction 1.53513e-011 -4.21834e-011 1   
     length 1.09718   
     axis -90 7.62852e-016 20   XYZ
    dof rx
    limits (-90.0 20.0)
  end
  begin
     id 6 
     name rhipjoint
     direction -0.621946 -0.740623 0.254285   
     length 2.50835  
     axis 0 0 0  XYZ 
  end
  begin
     id 7 
     name rfemur
     direction -0.34202 -0.939693 0   
     length 7.43366   
     axis 0 0 -20   XYZ
    dof rx ry rz
    limits (-160.0 20.0)
           (-70.0 70.0)
           (-70.0 60.0)
  end
  begin
     id 8 
     name rtibia
     direction -0.34202 -0.939693 0   
     length 7.77122   
     axis 0 0 -20   XYZ
    dof rx
    limits (-10.0 170.0)
 end
 begin
     id 9 
     name rfoot
     direction -0.082694 -0.2272 0.970331   
     length 2.2293  
     axis -90 -7.62852e-016 -20   XYZ
    dof rx rz
    limits (-45.0 90.0)
           (-20.0 70.0)
  end
  begin
     id 10 
     name rtoes
     direction -1.53565e-011 -4.21695e-011 1   
     length 1.1178   
     axis -90 -7.62852e-016 -20   XYZ
    dof rx
    limits (-90.0 20.0)
  end
  begin
     id 11 
     name lowerback
     direction -0.000695208 0.988391 -0.151929   
     length 1.95077   
     axis 0 0 0   XYZ
    dof rx ry rz
    limits (-20.0 45.0)
           (-30.0 30.0)
           (-30.0 30.0)
  end
  begin
     id 12 
     name upperback
     direction -0.00268925 0.999885 -0.0149203   
     length 1.96246   
     axis 0 0 0   XYZ
    dof rx ry rz
    limits (-20.0 45.0)
           (-30.0 30.0)
           (-30.0 30.0)
  end
  begin
     id 13 
     name thorax
     direction -0.000848408 0.998481 0.0550912   
     length 2.00867   
     axis 0 0 0   XYZ
    dof rx ry rz
    limits (-20.0 45.0)
           (-30.0 30.0)
           (-30.0 30.0)
  end
  begin
     id 14 
     name lowerneck
     direction -0.00577709 0.998999 0.0443608   
     length 1.75762   
     axis 0 0 0   XYZ
    dof rx ry rz
    limits (-20.0 45.0)
           (-30.0 30.0)
           (-30.0 30.0)
  end
  begin
     id 15 
     name upperneck
     direction 0.0320945 0.999136 0.0264105   
     length 1.72601   
     axis 0 0 0   XYZ
    dof rx ry rz
    limits (-20.0 45.0)
           (-30.0 30.0)
           (-30.0 30.0)
  end
  begin
     id 16
     name head
     direction 0.0120552 0.999916 0.00480151  
     length 1.79973  
     axis 0 0 0   XYZ
    dof rx ry rz
    limits (-20.0 45.0)
           (-30.0 30.0)
           (-30.0 30.0)
  end
  begin
     id 17 
     name lclavicle
     direction 0.909 0.371533 -0.188897  
     length 3.47956  
     axis 0 0 0   XYZ
    dof ry rz
    limits (-20.0 10.0)
           (0.0 20.0)
  end
  begin
     id 18 
     name lhumerus
     direction 1 -4.48963e-011 -6.48352e-028   
     length 5.52302   
     axis 180 -30 -90   XYZ
    dof rx ry rz
    limits (-60.0 90.0)
           (-90.0 90.0)
           (-90.0 90.0)
  end
  begin
     id 19
     name lradius
     direction 1 -4.48968e-011 -4.78536e-027   
     length 3.58675   
     axis 180 -30 -90   XYZ
    dof rx
    limits (-10.0 170.0)
  end
  begin
     id 20
     name lwrist
     direction 1 -4.48942e-011 -9.9435e-027   
     length 1.79337   
     axis 8.54312e-015 90 90   XYZ
    dof ry
    limits (-180.0 0.0)
 end
  begin
     id 21 
     name lhand
     direction 1 -4.4904e-011 -1.9887e-026   
     length 0.536412   
     axis 1.26896e-014 90 90   XYZ
    dof rx rz
    limits (-90.0 90.0)
           (-45.0 45.0)
  end
  begin
     id 22 
     name lfingers
     direction 1 -4.48893e-011 -3.9774e-026   
     length 0.432469   
     axis 2.53792e-014 90 90   XYZ
    dof rx
    limits (0.0 90.0)
  end
  begin
     id 23
     name lthumb
     direction 0.707107 -6.34934e-011 0.707107   
     length 0.620942   
     axis -90 45 2.85299e-015   XYZ
    dof rx rz
    limits (-45.0 45.0)
           (-45.0 45.0)
  end
  begin
     id 24 
     name rclavicle
     direction -0.89595 0.416672 -0.153813   
     length 3.44099  
     axis 0 0 0   XYZ 
    dof ry rz
    limits (-10.0 20.0)
           (-20.0 0.0)
  end
  begin
     id 25 
     name rhumerus
     direction -1 -4.48952e-011 5.57804e-028  
     length 5.8478   
     axis 180 30 90   XYZ
    dof rx ry rz
    limits (-90.0 60.0)
           (-90.0 90.0)
           (-90.0 90.0)
  end
  begin
     id 26 
     name rradius
     direction -1 -4.48967e-011 -7.93646e-027   
     length 3.62717   
     axis 180 30 90   XYZ
    dof rx
    limits (-10.0 170.0)
  end
  begin
     id 27 
     name rwrist
     direction -1 -4.49008e-011 -9.9435e-027   
     length 1.81359   
     axis 8.54312e-015 -90 -90   XYZ
    dof ry
    limits (-180.0 0.0)
  end
  begin
     id 28
     name rhand
     direction -1 -4.48812e-011 -1.9887e-026   
     length 0.650516   
     axis 1.26896e-014 -90 -90   XYZ
    dof rx rz
    limits (-90.0 90.0)
           (-45.0 45.0)
  end
  begin
     id 29
     name rfingers
     direction -1 -4.49228e-011 -3.9774e-026   
     length 0.524463   
     axis 2.53792e-014 -90 -90   XYZ
    dof rx
    limits (0.0 90.0)
  end
  begin
     id 30
     name rthumb
     direction -0.707107 -6.34912e-011 0.707107   
     length 0.753027   
     axis -90 -45 -2.85299e-015   XYZ
    dof rx rz
    limits (-45.0 45.0)
           (-45.0 45.0)
  end
:hierarchy
  begin
    root lhipjoint rhipjoint lowerback
    lhipjoint lfemur
    lfemur ltibia
    ltibia lfoot
    lfoot ltoes
    rhipjoint rfemur
    rfemur rtibia
    rtibia rfoot
    rfoot rtoes
    lowerback upperback
    upperback thorax
    thorax lowerneck lclavicle rclavicle
    lowerneck upperneck
    upperneck head
    lclavicle lhumerus
    lhumerus lradius
    lradius lwrist
    lwrist lhand lthumb
    lhand lfingers
    rclavicle rhumerus
    rhumerus rradius
    rradius rwrist
    rwrist rhand rthumb
    rhand rfingers
  end

#!OML:ASF F:\VICON\USERDATA\INSTALL\rory3\rory3.ASF
:FULLY-SPECIFIED
:DEGREES
360
root -9.05118 17.8337 33.2422 -1.94437 7.84032 -6.32651
lowerback 8.25613 1.6509 3.63985
upperback 1.79673 2.48039 -0.928647
thorax -2.56651 1.21369 -3.25935
lowerneck -3.29223 2.45655 0.986666
upperneck 21.7576 2.55727 4.09388
head 7.1431 1.67245 1.34547
rclavicle 7.33515e-014 1.59028e-015
rhumerus -28.6677 -9.27631 -75.8103
rradius 39.793
rwrist 8.48306
rhand -25.0159 19.0159
rfingers 7.12502
rthumb 1.49622 -10.9586
lclavicle 7.33515e-014 1.59028e-015
lhumerus -38.4065 6.97181 74.0201
lradius 6.66163
lwrist 29.3526
lhand -41.4708 35.3271
lfingers 7.12502
lthumb -14.3853 64.8087
rfemur 12.2786 4.18839 24.964
rtibia 32.3627
rfoot 9.75362 -2.52822
rtoes -5.95577
lfemur -19.5266 -1.91197 -21.3281
ltibia 22.8944
lfoot -0.278228 10.6575
ltoes 2.06718
361
root -8.98892 17.8398 33.3913 -1.95319 7.95606 -6.19325
lowerback 8.23866 1.71545 3.53743
upperback 1.75053 2.55475 -1.0174
thorax -2.59907 1.24979 -3.30146
lowerneck -3.31038 2.44593 0.873445
upperneck 22.16 2.53064 4.1851
head 7.27507 1.66495 1.39995
rclavicle 1.68967e-014 -7.95139e-016
rhumerus -28.9367 -9.65421 -75.9089
rradius 39.1185
rwrist 9.13209
rhand -25.1728 18.7071
rfingers 7.12502
rthumb 1.34471 -11.2684
lclavicle 1.68967e-014 -7.95139e-016
lhumerus -38.0582 7.03841 73.9769
lradius 6.98718
lwrist 28.3554
lhand -41.2123 34.1662
lfingers 7.12502
lthumb -14.1362 63.6653
rfemur 10.7554 4.16106 24.4809
rtibia 35.2042
rfoot 11.9992 -2.00228
rtoes -4.66641
lfemur -19.0823 -1.42875 -21.7364
ltibia 23.141
lfoot -0.9452 9.89128
ltoes 5.17984
362
root -8.92441 17.8521 33.5448 -1.90324 8.06524 -5.59934
lowerback 8.24394 1.83586 3.02035
upperback 1.65755 2.66407 -1.25598
thorax -2.70197 1.30368 -3.27154
lowerneck -3.09036 2.37401 0.915849
upperneck 22.5256 2.42398 4.20525
head 7.35867 1.62391 1.39519
rclavicle 6.12257e-014 -2.54444e-014
rhumerus -29.3608 -9.95064 -76.0173
rradius 38.4488
rwrist 9.31159
rhand -25.1332 18.8182
rfingers 7.12502
rthumb 1.38295 -11.1571
lclavicle 6.12257e-014 -2.54444e-014
lhumerus -37.759 7.01697 73.998
lradius 7.29487
lwrist 27.254
lhand -40.738 32.4707
lfingers 7.12502
lthumb -13.6791 62.0012
rfemur 9.19945 4.25435 23.5295
rtibia 38.0559
rfoot 14.0648 -1.4865
rtoes -3.50621
lfemur -18.5491 -1.13401 -22.6265
ltibia 23.3139
lfoot -1.29872 9.58989
ltoes 5.82436
363
root -8.86541 17.8641 33.7002 -2.10191 7.88591 -5.45542
lowerback 8.37616 2.03583 2.8322
upperback 1.69557 2.91496 -1.31302
thorax -2.72305 1.42993 -3.25439
lowerneck -3.06453 2.28408 0.955834
upperneck 22.8186 2.321 4.06941
head 7.45532 1.57146 1.34187
rclavicle 4.86029e-014 -4.77083e-015
rhumerus -29.5082 -10.0971 -76.1416
rradius 37.6956
rwrist 9.03912
rhand -24.6281 18.7277
rfingers 7.12502
rthumb 1.87072 -11.2439
lclavicle 4.86029e-014 -4.77083e-015
lhumerus -37.4396 7.07136 74.147
lradius 7.91283
lwrist 26.2676
lhand -39.8945 33.0262
lfingers 7.12502
lthumb -12.8661 62.6097
rfemur 7.75563 4.66414 23.1897
rtibia 40.8806
rfoot 16.238 -0.763777
rtoes -2.69383
lfemur -17.7098 -1.08551 -22.9036
ltibia 23.2719
lfoot -1.44269 9.70095
ltoes 3.657
364
root -8.80737 17.8781 33.8486 -2.32003 7.60289 -5.64026
lowerback 8.58412 2.20283 2.8896
upperback 1.69125 3.14919 -1.24873
thorax -2.82577 1.54382 -3.25356
lowerneck -3.13325 2.32063 1.08344
upperneck 23.1647 2.40333 3.82423
head 7.58689 1.60617 1.25323
rclavicle -3.57812e-015 -4.77083e-015
rhumerus -29.7454 -10.295 -76.2698
rradius 37.2491
rwrist 9.2056
rhand -24.1158 18.4668
rfingers 7.12502
rthumb 2.36548 -11.4998
lclavicle -3.57812e-015 -4.77083e-015
lhumerus -37.2819 7.22555 74.1623
lradius 8.74382
lwrist 25.3135
lhand -39.1658 33.9948
lfingers 7.12502
lthumb -12.1635 63.6212
rfemur 6.24117 5.31106 23.2802
rtibia 43.5763
rfoot 18.7939 -0.352325
rtoes -0.118405
lfemur -16.8656 -1.19525 -22.7865
ltibia 23.137
lfoot -1.66017 9.80083
ltoes 2.93729
365
root -8.73473 17.8893 33.9881 -2.30314 7.78785 -5.43563
lowerback 8.58565 2.15509 2.75377
upperback 1.64296 3.0709 -1.33934
thorax -2.88483 1.50387 -3.26505
lowerneck -3.15044 2.3931 1.04773
upperneck 23.3903 2.50569 3.82025
head 7.66289 1.65497 1.2697
rclavicle -1.91827e-014 8.74653e-015
rhumerus -29.9003 -10.1274 -76.5549
rradius 36.7484
rwrist 9.39785
rhand -23.6061 17.7997
rfingers 7.12502
rthumb 2.85775 -12.1609
lclavicle -1.91827e-014 8.74653e-015
lhumerus -36.9446 7.56711 74.0594
lradius 9.24896
lwrist 24.3869
lhand -38.4265 29.639
lfingers 7.12502
lthumb -11.4506 59.3063
rfemur 4.57802 5.39659 22.7426
rtibia 46.1226
rfoot 21.3891 0.0793099
rtoes 1.38629
lfemur -16.1622 -1.41492 -23.2355
ltibia 22.8755
lfoot -1.90219 9.57901
ltoes 3.69436
366
root -8.65556 17.8911 34.1253 -2.24445 8.2562 -5.1769
lowerback 8.19945 1.97547 2.57191
upperback 1.8512 2.80617 -1.37287
thorax -2.48168 1.38454 -3.14687
lowerneck -3.14143 2.44449 0.883877
upperneck 23.1405 2.6115 3.75585
head 7.57409 1.68209 1.27908
rclavicle 9.64106e-015 -5.56597e-015
rhumerus -29.4503 -9.76001 -76.8641
rradius 35.8723
rwrist 9.74386
rhand -22.663 17.2686
rfingers 7.12502
rthumb 3.76854 -12.6778
lclavicle 9.64106e-015 -5.56597e-015
lhumerus -36.0887 8.2296 74.0972
lradius 9.45623
lwrist 23.3921
lhand -36.1365 15.9361
lfingers 7.12502
lthumb -9.24151 45.7136
rfemur 2.97808 5.04498 22.0095
rtibia 48.5433
rfoot 23.6407 0.599895
rtoes 2.39034
lfemur -15.3935 -1.53036 -23.8306
ltibia 22.4024
lfoot -2.14531 9.36672
ltoes 4.83247
367
root -8.57933 17.9009 34.2808 -2.37582 8.72909 -4.43291
lowerback 8.45765 1.91476 2.05746
upperback 1.72367 2.67747 -1.64372
thorax -2.7772 1.31634 -3.14131
lowerneck -2.72521 2.39854 0.640548
upperneck 23.1311 2.53035 4.02458
head 7.48891 1.64487 1.3955
rclavicle 2.6339e-014 1.03368e-014
rhumerus -29.7974 -9.48477 -77.0542
rradius 35.0534
rwrist 10.3263
rhand -21.6037 17.0896
rfingers 7.12502
rthumb 4.79141 -12.8362
lclavicle 2.6339e-014 1.03368e-014
lhumerus -35.8204 8.33743 74.0765
lradius 9.69348
lwrist 22.2727
lhand -36.1378 24.9966
lfingers 7.12502
lthumb -9.24276 54.774
rfemur 1.74341 4.78111 20.81
rtibia 50.8836
rfoot 25.3426 1.09976
rtoes 4.64671
lfemur -14.1242 -1.59865 -24.9411
ltibia 21.7344
lfoot -2.51144 9.23077
ltoes 5.72549
368
root -8.52153 17.9137 34.4354 -2.58189 9.00048 -3.70537
lowerback 8.56661 1.94959 1.15907
upperback 1.83956 2.64158 -1.77761
thorax -2.75492 1.30609 -2.773
lowerneck -2.87481 2.3653 0.202316
upperneck 23.2351 2.44989 4.39667
head 7.53757 1.60477 1.59042
rclavicle -1.8487e-014 7.15625e-015
rhumerus -29.7405 -9.12851 -77.2161
rradius 34.32
rwrist 11.3845
rhand -20.4168 16.3034
rfingers 7.12502
rthumb 5.93742 -13.5934
lclavicle -1.8487e-014 7.15625e-015
lhumerus -35.1003 8.69338 74.31
lradius 9.78578
lwrist 21.1037
lhand -35.669 26.3958
lfingers 7.12502
lthumb -8.79045 56.1927
rfemur 0.545817 4.98182 19.8998
rtibia 53.0999
rfoot 26.7906 1.20395
rtoes 6.96834
lfemur -12.8446 -1.65727 -25.9107
ltibia 21.0614
lfoot -2.75309 9.05042
ltoes 6.6138
369
root -8.47226 17.9183 34.5672 -2.60053 9.28073 -3.2109
lowerback 8.82171 1.94816 0.466721
upperback 1.82535 2.57357 -1.86435
thorax -2.94168 1.27455 -2.47835
lowerneck -3.07859 2.39845 0.250178
upperneck 23.3536 2.53996 4.14229
head 7.61638 1.63272 1.51097
rclavicle 2.85256e-014 -1.19271e-014
rhumerus -29.7766 -8.83407 -77.4341
rradius 33.7154
rwrist 12.4422
rhand -19.178 15.7439
rfingers 7.12502
rthumb 7.13332 -14.1159
lclavicle 2.85256e-014 -1.19271e-014
lhumerus -34.4665 9.02498 74.3758
lradius 10.074
lwrist 19.721
lhand -35.6584 28.4941
lfingers 7.12502
lthumb -8.78017 58.2915
rfemur -0.961507 5.22006 19.3091
rtibia 55.2353
rfoot 27.7805 0.976635
rtoes 6.76859
lfemur -11.9526 -1.78199 -26.5922
ltibia 20.3986
lfoot -2.73672 8.85228
ltoes 6.91714
370
root -8.40706 17.9195 34.7047 -2.74622 9.85264 -3.07864
lowerback 9.14808 1.79654 0.437094
upperback 1.77377 2.36476 -1.92403
thorax -3.18419 1.16803 -2.51547
lowerneck -3.17573 2.50876 0.771637
upperneck 23.7358 2.80022 3.34895
head 7.78012 1.73631 1.18964
rclavicle -1.11319e-014 4.77083e-015
rhumerus -29.8051 -8.31843 -77.7587
rradius 32.89
rwrist 12.9317
rhand -18.3173 15.8159
rfingers 7.12502
rthumb 7.9641 -14.0141
lclavicle -1.11319e-014 4.77083e-015
lhumerus -34.1448 9.24679 74.2842
lradius 10.7937
lwrist 18.1999
lhand -35.1778 28.6013
lfingers 7.12502
lthumb -8.3164 58.4176
rfemur -2.23468 5.12214 18.9856
rtibia 57.2202
rfoot 28.2045 0.991608
rtoes 8.01193
lfemur -10.9285 -1.5882 -27.0337
ltibia 19.8103
lfoot -2.84024 8.18437
ltoes 6.25456
371
root -8.34531 17.9224 34.8446 -2.88037 10.4128 -3.01988
lowerback 9.25982 1.672 0.379546
upperback 1.78753 2.19247 -1.95286
thorax -3.24073 1.08252 -2.49727
lowerneck -3.0934 2.55223 1.1465
upperneck 23.8828 2.91952 2.89535
head 7.82852 1.7868 0.986889
rclavicle -2.00773e-014 1.27222e-014
rhumerus -29.6782 -7.95631 -78.0885
rradius 31.8904
rwrist 13.7835
rhand -17.7483 16.5614
rfingers 7.12502
rthumb 8.51325 -13.247
lclavicle -2.00773e-014 1.27222e-014
lhumerus -33.8443 9.45444 74.261
lradius 11.8006
lwrist 16.8592
lhand -34.5747 28.6364
lfingers 7.12502
lthumb -7.73424 58.4749
rfemur -3.54089 5.15844 18.8056
rtibia 59.081
rfoot 28.3463 1.25209
rtoes 7.36695
lfemur -9.9615 -1.37383 -27.3369
ltibia 19.2847
lfoot -2.91722 7.44195
ltoes 5.76928
372
root -8.28896 17.9236 34.9707 -2.76537 11.1018 -2.51143
lowerback 9.28417 1.5569 -0.186758
upperback 1.7613 1.97922 -2.08642
thorax -3.30555 0.980976 -2.29404
lowerneck -2.89862 2.53546 1.36963
upperneck 23.7646 2.92177 2.69691
head 7.76184 1.78842 0.878893
rclavicle -1.58034e-014 1.98785e-014
rhumerus -29.7009 -7.77107 -78.3475
rradius 31.086
rwrist 14.9648
rhand -17.4197 17.4521
rfingers 7.12502
rthumb 8.83031 -12.3432
lclavicle -1.58034e-014 1.98785e-014
lhumerus -33.3179 9.668 74.3202
lradius 12.4296
lwrist 15.4973
lhand -34.218 29.4046
lfingers 7.12502
lthumb -7.39002 59.2555
rfemur -5.04154 5.11296 18.1252
rtibia 60.8128
rfoot 27.4513 1.2429
rtoes 5.09577
lfemur -9.27686 -1.28456 -28.1099
ltibia 18.8325
lfoot -2.88461 6.68644
ltoes 5.65473
